<?xml version="1.0" encoding="UTF-8"?>
<svg width="100px" height="100px" viewBox="0 0 100 100" version="1.1" xmlns="http://www.w3.org/2000/svg" xmlns:xlink="http://www.w3.org/1999/xlink">
    <!-- Generator: Sketch 52.4 (67378) - http://www.bohemiancoding.com/sketch -->
    <title>Group 15</title>
    <desc>Created with Sketch.</desc>
    <g id="Melhorias" stroke="none" stroke-width="1" fill="none" fill-rule="evenodd">
        <g id="D-Detalhe-tabela" transform="translate(-148.000000, -1962.000000)">
            <g id="Group-15" transform="translate(148.000000, 1962.000000)">
                <rect id="Rectangle" fill="#363636" x="0" y="0" width="100" height="100"></rect>
                <g id="reddit-avatar" transform="translate(16.000000, 23.000000)">
                    <path d="M68,23.8596464 C68,18.6630337 63.75,14.5057435 58.4375,14.5057435 C56.1,14.5057435 53.975,15.3372016 52.275,16.7922531 C48.025,14.5057435 42.7125,13.050692 37.4,12.634963 L41.4375,4.94397618 L46.75,7.43835028 C46.75,7.64621478 46.75,7.85407929 46.75,8.26980831 C46.75,11.8035049 49.5125,14.5057435 53.125,14.5057435 C56.7375,14.5057435 59.5,11.8035049 59.5,8.26980831 C59.5,4.73611168 56.7375,2.03387308 53.125,2.03387308 C51.425,2.03387308 49.9375,2.6574666 48.6625,3.69678914 L41.225,0.163092507 C40.1625,-0.252636508 38.8875,0.163092507 38.4625,0.994550538 L32.725,12.4270985 C26.5625,12.634963 20.6125,14.0900145 15.9375,16.7922531 C14.025,15.3372016 11.9,14.5057435 9.5625,14.5057435 C4.25,14.5057435 0,18.6630337 0,23.8596464 C0,26.977614 1.7,30.0955816 4.25,31.7584977 C4.25,32.3820912 4.25,32.7978202 4.25,33.2135492 C4.25,44.6460972 17.6375,54 34,54 C50.3625,54 63.75,44.6460972 63.75,33.2135492 C63.75,32.7978202 63.75,32.1742267 63.75,31.7584977 C66.3,30.0955816 68,26.977614 68,23.8596464 Z" id="Path" fill="#FF4500"></path>
                    <path d="M43.5827964,42.4088294 C42.7146227,43.0078834 39.4589717,44.0063067 34.0328866,44.0063067 C28.6068016,44.0063067 25.3511505,43.0078834 24.4829769,42.4088294 C23.6148033,41.8097754 22.0954995,41.8097754 21.4443693,42.8081987 C20.793239,43.6069374 20.793239,45.00473 21.8784561,45.603784 C24.2659335,47.400946 29.6920186,48 34.0328866,48 C38.3737547,48 43.7998398,47.400946 46.1873172,45.603784 C47.0554908,45.00473 47.2725342,43.6069374 46.621404,42.8081987 C45.9702738,42.0094601 44.45097,41.8097754 43.5827964,42.4088294 Z" id="Path" fill="#363636"></path>
                    <circle id="Oval" fill="#363636" cx="22.5" cy="28.5" r="6.5"></circle>
                    <circle id="Oval" fill="#363636" cx="45.5" cy="28.5" r="6.5"></circle>
                </g>
            </g>
        </g>
    </g>
</svg>